<?xml version="1.0" encoding="UTF-8" standalone="no"?>
<!-- Created with Inkscape (http://www.inkscape.org/) -->

<svg
   xmlns:dc="http://purl.org/dc/elements/1.1/"
   xmlns:cc="http://creativecommons.org/ns#"
   xmlns:rdf="http://www.w3.org/1999/02/22-rdf-syntax-ns#"
   xmlns:svg="http://www.w3.org/2000/svg"
   xmlns="http://www.w3.org/2000/svg"
   version="1.1"
   width="370"
   height="245.08859"
   id="svg2">
  <defs
     id="defs4">
    <clipPath
       id="clipPath3198">
      <path
         d="m -8.0865959,2.7926052 1.2154282,92.6678608 66.3856397,-4.710538 0,-38.281273 42.395178,0.151915 -1.82314,-61.0696397 z"
         id="path3200"
         style="fill:none;stroke:#000000;stroke-width:0.30384305px;stroke-linecap:butt;stroke-linejoin:miter;stroke-opacity:1" />
    </clipPath>
    <clipPath
       id="clipPath3226">
      <path
         d="m 125,303.86218 3,277.5 169.20582,-5.5 0,-143 157.29418,1 -1,-138.5 z"
         id="path3228"
         style="fill:none;stroke:#000000;stroke-width:1px;stroke-linecap:butt;stroke-linejoin:miter;stroke-opacity:1" />
    </clipPath>
  </defs>
  <metadata
     id="metadata7">
    <rdf:RDF>
      <cc:Work
         rdf:about="">
        <dc:format>image/svg+xml</dc:format>
        <dc:type
           rdf:resource="http://purl.org/dc/dcmitype/StillImage" />
        <dc:title></dc:title>
      </cc:Work>
    </rdf:RDF>
  </metadata>
  <g
     transform="translate(-187.04724,-322.67359)"
     id="g3218"
     style="display:inline">
    <g
       id="g3308">
      <g
         id="text3344"
         style="font-size:96.64536285px;font-style:normal;font-variant:normal;font-weight:600;font-stretch:normal;text-align:start;line-height:100%;letter-spacing:0px;word-spacing:0px;writing-mode:lr-tb;text-anchor:start;fill:#222222;fill-opacity:1;stroke:none;font-family:Raleway;-inkscape-font-specification:Raleway Semi-Bold">
        <path
           d="m 380.16028,504.95987 0,-45.53532 -18.80225,34.48565 -5.52483,0 -18.89137,-34.48565 0,45.53532 -9.98034,0 0,-63.26825 10.69322,0 20.9409,38.67383 20.9409,-38.67383 10.69323,0 0,63.26825 -10.06946,0"
           id="path3382"
           style="font-size:89.1102066px;line-height:100%;font-family:Raleway;-inkscape-font-specification:Raleway Semi-Bold" />
        <path
           d="m 424.28237,505.85097 c -3.62384,0 -6.92092,-0.62377 -9.89124,-1.87131 -2.97035,-1.30695 -5.52484,-3.05945 -7.66347,-5.25751 -2.07925,-2.19804 -3.71293,-4.75253 -4.90106,-7.66347 -1.12874,-2.91092 -1.6931,-6.00007 -1.6931,-9.26746 0,-3.26735 0.56436,-6.3565 1.6931,-9.26747 1.18813,-2.9703 2.82181,-5.55449 4.90106,-7.75258 2.13863,-2.25742 4.69312,-4.00992 7.66347,-5.25751 2.97032,-1.3069 6.2971,-1.96037 9.98035,-1.96042 3.62378,5e-5 6.89115,0.65352 9.80212,1.96042 2.9703,1.307 5.49509,3.0595 7.57437,5.25751 2.07919,2.13868 3.65347,4.66347 4.72284,7.57436 1.12868,2.85156 1.69304,5.8516 1.69309,9.00013 -5e-5,0.71291 -0.0298,1.39609 -0.0891,2.04954 -0.0595,0.59409 -0.11886,1.09905 -0.17822,1.51487 l -37.33717,0 c 0.1782,2.07926 0.65346,3.95057 1.42576,5.61395 0.83168,1.6634 1.8713,3.11886 3.11886,4.3664 1.30693,1.18814 2.76239,2.10895 4.3664,2.76241 1.66336,0.65348 3.38616,0.98022 5.16839,0.98021 1.30692,1e-5 2.58416,-0.14851 3.83174,-0.44555 1.30691,-0.35643 2.49505,-0.83168 3.56441,-1.42576 1.06928,-0.65347 2.01979,-1.42575 2.85152,-2.31686 0.83166,-0.8911 1.48513,-1.87131 1.96043,-2.94064 l 8.37636,2.40597 c -1.60403,3.50501 -4.27734,6.38624 -8.01992,8.64369 -3.68326,2.19806 -7.99025,3.29708 -12.92098,3.29708 M 438.4509,478.1377 c -0.17826,-1.9604 -0.68322,-3.7723 -1.51487,-5.43573 -0.77233,-1.66335 -1.78225,-3.05941 -3.02975,-4.18818 -1.24758,-1.18809 -2.70304,-2.1089 -4.3664,-2.76241 -1.66342,-0.65344 -3.41592,-0.98017 -5.2575,-0.98021 -1.84164,4e-5 -3.59414,0.32677 -5.2575,0.98021 -1.60401,0.65351 -3.02977,1.57432 -4.27729,2.76241 -1.24756,1.12877 -2.25748,2.52483 -3.02975,4.18818 -0.7723,1.66343 -1.24756,3.47533 -1.42577,5.43573 l 28.15883,0"
           id="path3384"
           style="font-size:89.1102066px;line-height:100%;font-family:Raleway;-inkscape-font-specification:Raleway Semi-Bold" />
        <path
           d="m 481.65542,502.55389 c -1.30698,0.59407 -3.05948,1.27725 -5.2575,2.04954 -2.13867,0.71288 -4.48524,1.06932 -7.03971,1.06932 -1.54459,0 -3.00006,-0.20792 -4.3664,-0.62377 -1.30696,-0.41585 -2.49509,-1.03962 -3.5644,-1.87131 -1.00993,-0.8317 -1.81192,-1.90102 -2.40598,-3.20797 -0.59408,-1.36635 -0.89111,-3.00004 -0.8911,-4.90106 l 0,-29.13904 -6.23772,0 0,-7.57437 6.23772,0 0,-15.32695 9.80212,0 0,15.32695 10.15856,0 0,7.57437 -10.15856,0 0,26.02018 c -2e-5,1.6634 0.47524,2.88124 1.42576,3.65352 0.95049,0.71289 2.10892,1.06933 3.4753,1.06932 1.36633,1e-5 2.67328,-0.23762 3.92085,-0.71288 1.24752,-0.47525 2.16832,-0.86139 2.76242,-1.15843 l 2.13864,7.75258"
           id="path3386"
           style="font-size:89.1102066px;line-height:100%;font-family:Raleway;-inkscape-font-specification:Raleway Semi-Bold" />
        <path
           d="m 500.48274,505.85097 c -2.25747,0 -4.36641,-0.35644 -6.32682,-1.06932 -1.90103,-0.77229 -3.56442,-1.81191 -4.99017,-3.11886 -1.36637,-1.30694 -2.46539,-2.85152 -3.29708,-4.63373 -0.77229,-1.78219 -1.15844,-3.71291 -1.15844,-5.79216 0,-2.19804 0.47526,-4.18816 1.42577,-5.97039 0.9505,-1.78218 2.28715,-3.32675 4.00996,-4.63373 1.78219,-1.30692 3.86143,-2.31684 6.23771,-3.02974 2.43566,-0.71286 5.10897,-1.0693 8.01992,-1.06933 2.19803,3e-5 4.36637,0.20796 6.50505,0.62377 2.13861,0.35647 4.06933,0.86143 5.79216,1.51488 l 0,-3.20797 c -4e-5,-3.44556 -0.98025,-6.11886 -2.94064,-8.01992 -1.96045,-1.96038 -4.78227,-2.94059 -8.46547,-2.94063 -2.4951,4e-5 -4.96048,0.47529 -7.39614,1.42576 -2.37629,0.89114 -4.84167,2.19809 -7.39615,3.92085 l -3.02975,-6.23772 c 6.00008,-4.03961 12.23779,-6.05944 18.71314,-6.05949 6.41591,5e-5 11.40608,1.63373 14.97052,4.90106 3.56436,3.26741 5.34657,7.96055 5.34661,14.07941 l 0,16.84183 c -4e-5,1.12874 0.20788,1.93073 0.62377,2.40598 0.41581,0.47526 1.12869,0.74259 2.13865,0.80199 l 0,8.37636 c -0.95056,0.17822 -1.84166,0.29703 -2.67331,0.35644 -0.77233,0.0594 -1.48521,0.0891 -2.13864,0.0891 -1.90106,-0.11881 -3.35653,-0.62377 -4.3664,-1.51487 -0.95055,-0.8911 -1.54462,-2.07924 -1.78221,-3.56441 l -0.26733,-2.94064 c -2.07927,2.73272 -4.66346,4.84166 -7.75259,6.32683 -3.02977,1.42576 -6.29714,2.13864 -9.80212,2.13864 m 2.67331,-7.21793 c 2.37625,10e-6 4.604,-0.41584 6.68326,-1.24754 2.13862,-0.89109 3.80201,-2.10893 4.99017,-3.65352 1.24751,-1.06931 1.87128,-2.19803 1.87132,-3.38618 l 0,-6.14861 c -1.66342,-0.65345 -3.44563,-1.15841 -5.34661,-1.51487 -1.84164,-0.35642 -3.65355,-0.53464 -5.43573,-0.53466 -3.50502,2e-5 -6.38624,0.77231 -8.64369,2.31686 -2.19806,1.48519 -3.29709,3.47532 -3.29707,5.97039 -2e-5,2.31687 0.86138,4.2773 2.58419,5.88127 1.72278,1.54458 3.92083,2.31687 6.59416,2.31686"
           id="path3388"
           style="font-size:89.1102066px;line-height:100%;font-family:Raleway;-inkscape-font-specification:Raleway Semi-Bold" />
      </g>
      <g
         id="text10122"
         style="font-size:327.07180786px;font-style:normal;font-variant:normal;font-weight:normal;font-stretch:normal;text-align:start;line-height:125%;letter-spacing:0px;word-spacing:0px;writing-mode:lr-tb;text-anchor:start;fill:#000000;fill-opacity:1;stroke:none;font-family:Lato;-inkscape-font-specification:Raleway Bold">
        <path
           d="m 326.96513,562.12915 0,-44.946 19.561,0 c 2.02571,5e-5 3.88263,0.42208 5.57077,1.26609 1.73028,0.8441 3.20738,1.96247 4.4313,3.35512 1.22384,1.35053 2.17341,2.91203 2.84869,4.68451 0.71741,1.73035 1.07613,3.50287 1.07617,5.31756 -4e-5,1.51933 -0.21105,2.97532 -0.63304,4.36799 -0.42207,1.39272 -1.01291,2.6799 -1.77252,3.86156 -0.75969,1.1817 -1.68815,2.21566 -2.78539,3.1019 -1.0973,0.84408 -2.30008,1.47712 -3.60834,1.89913 l 10.69842,17.09214 -8.03964,0 -9.87546,-15.63614 -10.38189,0 0,15.63614 -7.09007,0 m 7.09007,-21.90326 12.40763,0 c 1.01284,2e-5 1.9202,-0.21099 2.72208,-0.63304 0.84403,-0.46421 1.56147,-1.07615 2.15234,-1.83583 0.59081,-0.80182 1.05504,-1.70918 1.39269,-2.72208 0.33759,-1.01284 0.50641,-2.08901 0.50644,-3.22851 -3e-5,-1.13945 -0.21105,-2.21562 -0.63304,-3.22852 -0.37986,-1.01283 -0.9074,-1.89909 -1.58261,-2.65877 -0.63307,-0.75962 -1.39272,-1.35046 -2.27895,-1.77252 -0.84408,-0.4642 -1.73034,-0.69631 -2.65878,-0.69635 l -12.0278,0 0,16.77562"
           id="path3391"
           style="font-size:63.30422211px;font-weight:600;line-height:125%;font-family:Raleway;-inkscape-font-specification:Raleway Bold" />
        <path
           d="m 383.49085,562.76219 c -2.57439,0 -4.91664,-0.44313 -7.02677,-1.32939 -2.11015,-0.92846 -3.92487,-2.17344 -5.44416,-3.73495 -1.47711,-1.56149 -2.63768,-3.37621 -3.48174,-5.44416 -0.80185,-2.06792 -1.20278,-4.26247 -1.20278,-6.58364 0,-2.32113 0.40093,-4.51568 1.20278,-6.58364 0.84406,-2.11011 2.00463,-3.94593 3.48174,-5.50746 1.51929,-1.60368 3.33401,-2.84866 5.44416,-3.73495 2.11013,-0.92843 4.47348,-1.39266 7.09007,-1.3927 2.57435,4e-5 4.89551,0.46427 6.96347,1.3927 2.11011,0.92849 3.90373,2.17347 5.38086,3.73495 1.47706,1.51932 2.59544,3.31294 3.35512,5.38086 0.80182,2.02575 1.20274,4.15699 1.20278,6.39372 -4e-5,0.50645 -0.0211,0.99178 -0.0633,1.456 -0.0422,0.42204 -0.0845,0.78077 -0.12661,1.07617 l -26.52447,0 c 0.1266,1.47711 0.46422,2.8065 1.01287,3.98817 0.59082,1.18168 1.32937,2.21565 2.21564,3.1019 0.92845,0.84407 1.96242,1.49821 3.10191,1.96243 1.18166,0.46424 2.40554,0.69636 3.67165,0.69635 0.92844,10e-6 1.8358,-0.1055 2.72208,-0.31652 0.92844,-0.25321 1.77249,-0.59083 2.53217,-1.01287 0.75962,-0.46422 1.43487,-1.01286 2.02573,-1.64591 0.59081,-0.63303 1.05504,-1.32938 1.39269,-2.08904 l 5.9506,1.70922 c -1.13951,2.48997 -3.03863,4.5368 -5.69738,6.14051 -2.6166,1.5615 -5.6763,2.34225 -9.17911,2.34225 m 10.06537,-19.68761 c -0.12664,-1.39267 -0.48536,-2.67986 -1.07617,-3.86156 -0.54867,-1.18165 -1.26611,-2.17342 -2.15235,-2.9753 -0.88628,-0.84403 -1.92025,-1.49817 -3.1019,-1.96243 -1.1817,-0.4642 -2.42668,-0.69632 -3.73495,-0.69634 -1.30831,2e-5 -2.55329,0.23214 -3.73495,0.69634 -1.13949,0.46426 -2.15236,1.1184 -3.0386,1.96243 -0.88627,0.80188 -1.60372,1.79365 -2.15235,2.9753 -0.54864,1.1817 -0.88627,2.46889 -1.01286,3.86156 l 20.00413,0"
           id="path3393"
           style="font-size:63.30422211px;font-weight:600;line-height:125%;font-family:Raleway;-inkscape-font-specification:Raleway Bold" />
        <path
           d="m 408.1607,562.12915 0,-23.86569 -4.4313,0 0,-5.38086 4.4313,0 0,-4.36799 c -1e-5,-4.09364 0.94955,-7.32215 2.84869,-9.68555 1.89911,-2.36331 4.47348,-3.54499 7.72311,-3.54503 1.35047,4e-5 2.67986,0.18996 3.98817,0.56973 1.30826,0.33767 2.53214,0.823 3.67164,1.456 l -1.5193,5.19095 c -0.59086,-0.37979 -1.32941,-0.69631 -2.21565,-0.94957 -0.84407,-0.25317 -1.66703,-0.37978 -2.46886,-0.37982 -1.64593,4e-5 -2.91201,0.61198 -3.79825,1.83582 -0.84407,1.22392 -1.2661,2.99644 -1.26609,5.31756 l 0,4.5579 8.41946,0 0,5.38086 -8.41946,0 0,23.86569 -6.96346,0"
           id="path3395"
           style="font-size:63.30422211px;font-weight:600;line-height:125%;font-family:Raleway;-inkscape-font-specification:Raleway Bold" />
        <path
           d="m 447.92762,535.03494 c -2.701,0.0844 -5.08546,0.71748 -7.15338,1.89913 -2.06795,1.1395 -3.56615,2.78541 -4.4946,4.93773 l 0,20.25735 -6.96346,0 0,-33.10811 6.45703,0 0,7.4066 c 1.18167,-2.27893 2.67987,-4.13585 4.4946,-5.57078 1.85691,-1.43486 3.81934,-2.15231 5.88729,-2.15234 0.42201,3e-5 0.75963,3e-5 1.01287,0 0.2954,3e-5 0.54861,0.0211 0.75965,0.0633 l 0,6.26711"
           id="path3397"
           style="font-size:63.30422211px;font-weight:600;line-height:125%;font-family:Raleway;-inkscape-font-specification:Raleway Bold" />
        <path
           d="m 468.06133,562.76219 c -2.57439,0 -4.91664,-0.44313 -7.02677,-1.32939 -2.11015,-0.92846 -3.92487,-2.17344 -5.44416,-3.73495 -1.47711,-1.56149 -2.63768,-3.37621 -3.48173,-5.44416 -0.80186,-2.06792 -1.20279,-4.26247 -1.20279,-6.58364 0,-2.32113 0.40093,-4.51568 1.20279,-6.58364 0.84405,-2.11011 2.00462,-3.94593 3.48173,-5.50746 1.51929,-1.60368 3.33401,-2.84866 5.44416,-3.73495 2.11013,-0.92843 4.47348,-1.39266 7.09007,-1.3927 2.57435,4e-5 4.89551,0.46427 6.96347,1.3927 2.11011,0.92849 3.90373,2.17347 5.38086,3.73495 1.47706,1.51932 2.59544,3.31294 3.35512,5.38086 0.80182,2.02575 1.20274,4.15699 1.20278,6.39372 -4e-5,0.50645 -0.0211,0.99178 -0.0633,1.456 -0.0422,0.42204 -0.0844,0.78077 -0.12661,1.07617 l -26.52447,0 c 0.1266,1.47711 0.46422,2.8065 1.01287,3.98817 0.59082,1.18168 1.32937,2.21565 2.21564,3.1019 0.92845,0.84407 1.96242,1.49821 3.10191,1.96243 1.18166,0.46424 2.40554,0.69636 3.67165,0.69635 0.92844,10e-6 1.8358,-0.1055 2.72208,-0.31652 0.92844,-0.25321 1.77249,-0.59083 2.53217,-1.01287 0.75962,-0.46422 1.43487,-1.01286 2.02573,-1.64591 0.59081,-0.63303 1.05504,-1.32938 1.39269,-2.08904 l 5.9506,1.70922 c -1.13951,2.48997 -3.03863,4.5368 -5.69738,6.14051 -2.6166,1.5615 -5.6763,2.34225 -9.17911,2.34225 m 10.06537,-19.68761 c -0.12664,-1.39267 -0.48536,-2.67986 -1.07617,-3.86156 -0.54867,-1.18165 -1.26611,-2.17342 -2.15234,-2.9753 -0.88629,-0.84403 -1.92026,-1.49817 -3.10191,-1.96243 -1.1817,-0.4642 -2.42668,-0.69632 -3.73495,-0.69634 -1.30831,2e-5 -2.55329,0.23214 -3.73495,0.69634 -1.13949,0.46426 -2.15236,1.1184 -3.0386,1.96243 -0.88627,0.80188 -1.60372,1.79365 -2.15235,2.9753 -0.54864,1.1817 -0.88626,2.46889 -1.01286,3.86156 l 20.00413,0"
           id="path3399"
           style="font-size:63.30422211px;font-weight:600;line-height:125%;font-family:Raleway;-inkscape-font-specification:Raleway Bold" />
        <path
           d="m 503.04977,562.76219 c -1.35051,0 -2.7221,-0.1055 -4.11478,-0.31652 -1.3505,-0.21101 -2.70099,-0.50643 -4.05147,-0.88626 -1.30829,-0.42202 -2.57438,-0.90736 -3.79825,-1.45599 -1.18168,-0.59084 -2.23675,-1.24498 -3.16521,-1.96244 l 2.91199,-4.68451 c 4.05146,2.8276 8.08183,4.24139 12.09111,4.24138 2.11012,10e-6 3.77713,-0.40092 5.00103,-1.20278 1.22386,-0.80184 1.8358,-1.94132 1.83582,-3.41842 -2e-5,-1.39269 -0.69637,-2.40555 -2.08904,-3.03861 -1.35051,-0.67523 -3.52395,-1.37157 -6.52033,-2.08904 -2.06795,-0.50641 -3.84047,-1.01285 -5.31756,-1.5193 -1.4771,-0.54862 -2.67988,-1.13946 -3.60834,-1.77251 -0.92846,-0.67523 -1.60371,-1.45598 -2.02573,-2.34226 -0.42203,-0.92844 -0.63305,-2.02571 -0.63304,-3.29182 -10e-6,-1.68809 0.33762,-3.18629 1.01286,-4.4946 0.67524,-1.30826 1.5826,-2.40553 2.72209,-3.29182 1.18167,-0.92843 2.55326,-1.62478 4.11477,-2.08904 1.60369,-0.4642 3.31291,-0.69631 5.12764,-0.69635 2.40554,4e-5 4.7267,0.37986 6.96347,1.13948 2.23672,0.75968 4.24135,1.79365 6.0139,3.10191 l -2.9753,4.24138 c -3.16524,-2.36333 -6.54146,-3.54501 -10.12868,-3.54504 -1.77253,3e-5 -3.27073,0.37986 -4.4946,1.13948 -1.22389,0.71747 -1.83583,1.87805 -1.83582,3.48173 -10e-6,0.67527 0.1266,1.24501 0.37983,1.70922 0.2532,0.46425 0.65413,0.86518 1.20278,1.20278 0.59082,0.33764 1.35047,0.65416 2.27895,0.94956 0.92845,0.25324 2.06792,0.54866 3.41843,0.88626 2.27893,0.54865 4.24136,1.09729 5.88729,1.64591 1.64588,0.54865 2.99637,1.20279 4.05147,1.96243 1.09724,0.71746 1.8991,1.58262 2.40556,2.59547 0.5064,0.97068 0.75962,2.15236 0.75965,3.54504 -3e-5,1.56151 -0.31655,2.9753 -0.94956,4.24138 -0.63307,1.26609 -1.54043,2.34226 -2.72208,3.22852 -1.13951,0.88626 -2.5533,1.5826 -4.24139,2.08904 -1.64593,0.46423 -3.48175,0.69634 -5.50746,0.69634"
           id="path3401"
           style="font-size:63.30422211px;font-weight:600;line-height:125%;font-family:Raleway;-inkscape-font-specification:Raleway Bold" />
        <path
           d="m 552.04724,562.12915 -6.96347,0 0,-18.54814 c -2e-5,-3.03858 -0.54866,-5.27532 -1.64591,-6.71024 -1.09729,-1.47708 -2.6588,-2.21562 -4.68451,-2.21565 -0.92848,3e-5 -1.87804,0.18994 -2.84869,0.56974 -0.97068,0.37985 -1.89914,0.92848 -2.78539,1.64591 -0.84407,0.67527 -1.62482,1.49822 -2.34225,2.46886 -0.67526,0.92848 -1.18169,1.96245 -1.5193,3.10191 l 0,19.68761 -6.96347,0 0,-46.21208 6.96347,0 0,19.75092 c 1.30827,-2.27893 3.03859,-4.05144 5.19094,-5.31756 2.19453,-1.26605 4.57899,-1.89909 7.15338,-1.89913 2.02571,4e-5 3.71382,0.37986 5.06434,1.13948 1.35046,0.71748 2.42663,1.68814 3.22851,2.91199 0.80182,1.22391 1.35046,2.65881 1.64591,4.30469 0.33759,1.60373 0.5064,3.31294 0.50644,5.12764 l 0,20.19405"
           id="path3403"
           style="font-size:63.30422211px;font-weight:600;line-height:125%;font-family:Raleway;-inkscape-font-specification:Raleway Bold" />
      </g>
    </g>
    <path
       d="m 297.03871,325.31478 c -65.71829,0 -118.86412,53.05041 -118.86412,118.45283 0,65.38266 53.32611,118.35491 119.03123,118.35491 10.42908,0 20.10412,0.0954 29.24045,-0.005 l -0.002,-44.25239 -29.23843,-1.125 c -39.52084,-1.52063 -71.52658,-33.64956 -71.52658,-72.9726 0,-39.35595 32.12457,-71.3596 71.66807,-71.3596 23.67411,0 44.60489,11.54256 57.68405,29.2019 l -28.58496,26.5285 87.19444,0 0,-87.5029 -25.91156,27.14543 C 365.93582,341.90188 333.61002,325.3147 297.03886,325.3147 z"
       transform="matrix(0.99006575,0,0,0.99006575,15.642682,5.5906503)"
       clip-path="url(#clipPath3226)"
       id="path3220"
       style="fill:#df5e0e;fill-opacity:1;stroke:none" />
  </g>
</svg>
