<?xml version="1.0" encoding="UTF-8" standalone="no"?>
<!-- Created with Inkscape (http://www.inkscape.org/) -->

<svg
   xmlns:dc="http://purl.org/dc/elements/1.1/"
   xmlns:cc="http://creativecommons.org/ns#"
   xmlns:rdf="http://www.w3.org/1999/02/22-rdf-syntax-ns#"
   xmlns:svg="http://www.w3.org/2000/svg"
   xmlns="http://www.w3.org/2000/svg"
   xmlns:sodipodi="http://sodipodi.sourceforge.net/DTD/sodipodi-0.dtd"
   xmlns:inkscape="http://www.inkscape.org/namespaces/inkscape"
   version="1.1"
   width="397.7453"
   height="247.4474"
   id="svg2"
   inkscape:version="0.48.2 r9819"
   sodipodi:docname="logo-fontless.svg">
  <sodipodi:namedview
     pagecolor="#ffffff"
     bordercolor="#666666"
     borderopacity="1"
     objecttolerance="10"
     gridtolerance="10"
     guidetolerance="10"
     inkscape:pageopacity="0"
     inkscape:pageshadow="2"
     inkscape:window-width="1131"
     inkscape:window-height="668"
     id="namedview3092"
     showgrid="false"
     fit-margin-top="5"
     fit-margin-left="5"
     fit-margin-right="5"
     fit-margin-bottom="5"
     inkscape:zoom="0.89702957"
     inkscape:cx="175.39099"
     inkscape:cy="41.581095"
     inkscape:window-x="0"
     inkscape:window-y="0"
     inkscape:window-maximized="0"
     inkscape:current-layer="g10130" />
  <defs
     id="defs4" />
  <metadata
     id="metadata7">
    <rdf:RDF>
      <cc:Work
         rdf:about="">
        <dc:format>image/svg+xml</dc:format>
        <dc:type
           rdf:resource="http://purl.org/dc/dcmitype/StillImage" />
        <dc:title />
      </cc:Work>
    </rdf:RDF>
  </metadata>
  <path
     inkscape:connector-curvature="0"
     style="fill:#df5e0e;fill-opacity:1;stroke:none;display:none"
     id="path3138"
     d="m 70.31399,205.86681 c 0,-3.41 2.764,-6.172 6.174,-6.172 v -14.111 h -71.872 v 14.111 c 3.414,0 6.175,2.762 6.175,6.172 0,3.414 -2.761,6.178 -6.175,6.178 v 14.104 h 71.872 v -14.104 c -3.411,0 -6.174,-2.764 -6.174,-6.178 z" />
  <path
     inkscape:connector-curvature="0"
     style="fill:#df5e0e;fill-opacity:1;stroke:none;display:none"
     id="path3141"
     d="m 75.20099,183.93781 -15.563,15.563 -12.722,-12.719 15.562,-15.565 c -7.393,-2.627 -15.958,-1.005 -21.872,4.914 -5.917,5.914 -7.541,14.48 -4.916,21.873 l -31.003,31.004 12.722,12.725 31.006,-31.007 c 7.392,2.626 15.957,1.004 21.872,-4.913 5.917,-5.917 7.539,-14.48 4.914,-21.875 z" />
  <path
     inkscape:connector-curvature="0"
     style="fill:#df5e0e;fill-opacity:1;stroke:none;display:none"
     id="path3144"
     d="m 62.43699,194.51781 v -24.586 h -43.778 v 24.586 h 0.016 l -2.274,16.811 h 0.012 v 22.156 h 1.979 v 8.314 h 7.386 v -8.314 h 29.551 v 8.314 h 7.387 v -8.314 h 1.982 v -22.156 h 0.008 l -2.269,-16.811 z m -36.802,32.502 c -2.547,0 -4.612,-2.059 -4.612,-4.615 0,-2.549 2.065,-4.615 4.612,-4.615 2.549,0 4.62,2.066 4.62,4.615 0,2.557 -2.072,4.615 -4.62,4.615 z m 29.839,0 c -2.553,0 -4.613,-2.059 -4.613,-4.615 0,-2.549 2.061,-4.615 4.613,-4.615 2.547,0 4.617,2.066 4.617,4.615 0,2.557 -2.07,4.615 -4.617,4.615 z m -34.452,-16.693 3.009,-15.809 h 1.47 30.278 1.299 l 3.014,15.809 h -39.07 z" />
  <path
     inkscape:connector-curvature="0"
     style="fill:#df5e0e;fill-opacity:1;stroke:none"
     id="path3147"
     d="M 123.86412,5 C 58.14583,5 5,58.05041 5,123.45283 c 0,65.38266 53.36464,118.34999 119.06976,118.34999 10.42908,0 20.06559,0.10032 29.20192,0 l -0.002,-44.25239 -29.23843,-1.125 c -39.52084,-1.52063 -71.52658,-33.64956 -71.52658,-72.9726 0,-39.35595 32.12457,-71.3596 71.66807,-71.3596 23.67411,0 44.60489,11.54256 57.68405,29.2019 l -28.58496,26.5285 87.19444,0 0,-87.5029 -25.91156,27.14543 C 192.76123,21.58718 160.43543,5 123.86427,5 z" />
  <polygon
     style="fill:#df5e0e;fill-opacity:1;stroke:none;display:none"
     id="polygon3150"
     transform="translate(-9.44801,155.86581)"
     points="85.981,50.004 14.019,85.98 14.019,14.02 " />
  <g
     id="g10130"
     transform="matrix(1.8314178,0,0,1.8314178,-398.79347,-842.34121)">
    <g
       id="g10143">
      <g
         style="font-size:53.29772568px;font-style:normal;font-variant:normal;font-weight:600;font-stretch:normal;text-align:start;line-height:100%;letter-spacing:0px;word-spacing:0px;writing-mode:lr-tb;text-anchor:start;fill:#222222;fill-opacity:1;stroke:none;font-family:Raleway;-inkscape-font-specification:Raleway Semi-Bold"
         id="text3344">
        <path
           d="m 343.01875,562.21924 0,-27.23514 -11.24582,20.62622 -3.30446,0 -11.29912,-20.62622 0,27.23514 -5.96934,0 0,-37.84139 6.39572,0 12.52497,23.13122 12.52496,-23.13122 6.39573,0 0,37.84139 -6.02264,0"
           id="path3107"
           inkscape:connector-curvature="0" />
        <path
           d="m 369.40862,562.75222 c -2.16746,0 -4.13947,-0.37309 -5.91605,-1.11926 -1.7766,-0.7817 -3.30447,-1.82988 -4.5836,-3.14456 -1.24362,-1.31467 -2.22075,-2.84254 -2.93138,-4.58361 -0.67511,-1.74105 -1.01266,-3.5887 -1.01266,-5.54296 0,-1.95423 0.33755,-3.80189 1.01266,-5.54296 0.71063,-1.77657 1.68776,-3.32221 2.93138,-4.63691 1.27913,-1.35018 2.807,-2.39837 4.5836,-3.14456 1.77658,-0.78167 3.76636,-1.17252 5.96935,-1.17255 2.16742,3e-5 4.12167,0.39088 5.86275,1.17255 1.77656,0.78172 3.28666,1.82991 4.5303,3.14456 1.24359,1.27917 2.18518,2.78927 2.82478,4.53031 0.67508,1.70555 1.01263,3.4999 1.01266,5.38307 -3e-5,0.4264 -0.0178,0.83501 -0.0533,1.22585 -0.0356,0.35533 -0.0711,0.65735 -0.10659,0.90606 l -22.33175,0 c 0.10659,1.24362 0.39084,2.36288 0.85276,3.35776 0.49744,0.9949 1.11924,1.86542 1.86542,2.61159 0.78169,0.71064 1.65222,1.26138 2.61159,1.65222 0.99488,0.39086 2.0253,0.58628 3.09127,0.58628 0.78168,0 1.54561,-0.0888 2.2918,-0.26649 0.78168,-0.21319 1.49232,-0.49744 2.13191,-0.85276 0.63955,-0.39085 1.20806,-0.85276 1.70553,-1.38574 0.49742,-0.53297 0.88827,-1.11925 1.17255,-1.75883 l 5.00998,1.43904 c -0.95938,2.09638 -2.55831,3.81967 -4.79679,5.16988 -2.203,1.31468 -4.77905,1.97202 -7.72817,1.97202 m 8.47434,-16.5756 c -0.10662,-1.17253 -0.40864,-2.25625 -0.90607,-3.25116 -0.46193,-0.99487 -1.06597,-1.82987 -1.81212,-2.50499 -0.74619,-0.71062 -1.61672,-1.26136 -2.61159,-1.65223 -0.99491,-0.39083 -2.04309,-0.58625 -3.14456,-0.58628 -1.1015,3e-5 -2.14969,0.19545 -3.14457,0.58628 -0.95937,0.39087 -1.81213,0.94161 -2.55829,1.65223 -0.74618,0.67512 -1.35022,1.51012 -1.81212,2.50499 -0.46192,0.99491 -0.74618,2.07863 -0.85277,3.25116 l 16.84209,0"
           id="path3109"
           inkscape:connector-curvature="0" />
        <path
           d="m 403.72403,560.7802 c -0.78172,0.35532 -1.82991,0.76393 -3.14457,1.22585 -1.27916,0.42638 -2.68266,0.63957 -4.21052,0.63957 -0.92384,0 -1.79437,-0.12436 -2.61159,-0.37308 -0.78171,-0.24873 -1.49234,-0.62181 -2.13191,-1.11926 -0.60404,-0.49744 -1.08372,-1.13701 -1.43904,-1.91871 -0.35532,-0.81723 -0.53298,-1.79436 -0.53297,-2.93138 l 0,-17.42836 -3.73084,0 0,-4.5303 3.73084,0 0,-9.16721 5.86275,0 0,9.16721 6.07594,0 0,4.5303 -6.07594,0 0,15.56294 c -1e-5,0.9949 0.28424,1.7233 0.85276,2.18521 0.5685,0.42638 1.26137,0.63957 2.07861,0.63957 0.81722,0 1.59892,-0.14212 2.3451,-0.42638 0.74615,-0.28425 1.2969,-0.51521 1.65223,-0.69287 l 1.27915,4.6369"
           id="path3111"
           inkscape:connector-curvature="0" />
        <path
           d="m 414.98483,562.75222 c -1.35022,0 -2.61159,-0.2132 -3.78414,-0.63958 -1.13702,-0.46191 -2.13191,-1.08372 -2.98467,-1.86542 -0.81723,-0.78169 -1.47457,-1.70552 -1.97201,-2.77148 -0.46192,-1.06595 -0.69288,-2.22073 -0.69287,-3.46435 -10e-6,-1.31467 0.28425,-2.50498 0.85276,-3.57095 0.56851,-1.06594 1.36797,-1.98977 2.3984,-2.77148 1.06595,-0.78169 2.30956,-1.38573 3.73084,-1.81212 1.45679,-0.42637 3.05572,-0.63956 4.79679,-0.63958 1.31467,2e-5 2.61158,0.12438 3.89074,0.37309 1.27912,0.21321 2.43391,0.51523 3.46435,0.90606 l 0,-1.91872 c -2e-5,-2.06082 -0.5863,-3.65975 -1.75883,-4.79679 -1.17256,-1.17253 -2.86032,-1.7588 -5.06328,-1.75883 -1.49235,3e-5 -2.96692,0.28428 -4.42371,0.85276 -1.42128,0.533 -2.89585,1.3147 -4.42371,2.3451 l -1.81212,-3.73084 c 3.5887,-2.41613 7.31954,-3.62421 11.19252,-3.62424 3.83742,3e-5 6.82209,0.97715 8.95402,2.93137 2.13188,1.95428 3.19783,4.76129 3.19786,8.42104 l 0,10.07327 c -3e-5,0.67511 0.12433,1.15479 0.37308,1.43904 0.2487,0.28426 0.67508,0.44416 1.27915,0.47968 l 0,5.00999 c -0.56854,0.10659 -1.10151,0.17766 -1.59893,0.21319 -0.46194,0.0355 -0.88832,0.0533 -1.27915,0.0533 -1.13704,-0.0711 -2.00757,-0.37309 -2.61159,-0.90606 -0.56853,-0.53298 -0.92385,-1.24362 -1.06595,-2.13191 l -0.15989,-1.75883 c -1.24364,1.63447 -2.78927,2.89585 -4.63691,3.78414 -1.81213,0.85276 -3.76638,1.27915 -5.86275,1.27915 m 1.59894,-4.31712 c 1.42125,0 2.7537,-0.24872 3.99732,-0.74617 1.27913,-0.53297 2.27402,-1.26137 2.98468,-2.18521 0.74615,-0.63956 1.11923,-1.31466 1.11925,-2.02531 l 0,-3.67754 c -0.99491,-0.39084 -2.06086,-0.69286 -3.19786,-0.90606 -1.10151,-0.21318 -2.18523,-0.31978 -3.25117,-0.31979 -2.09638,10e-6 -3.81968,0.46193 -5.16987,1.38574 -1.31469,0.88831 -1.97203,2.07862 -1.97202,3.57095 -1e-5,1.38575 0.5152,2.5583 1.54563,3.51765 1.03042,0.92383 2.34509,1.38574 3.94404,1.38574"
           id="path3113"
           inkscape:connector-curvature="0" />
      </g>
      <g
         style="font-size:175.82775879px;font-style:normal;font-variant:normal;font-weight:normal;font-stretch:normal;text-align:start;line-height:125%;letter-spacing:0px;word-spacing:0px;writing-mode:lr-tb;text-anchor:start;fill:#000000;fill-opacity:1;stroke:none;font-family:Lato;-inkscape-font-specification:Raleway Bold"
         id="text10122">
        <path
           d="m 311.2,591.98145 0,-24.16214 10.51564,0 c 1.08898,2e-5 2.08723,0.2269 2.99474,0.68062 0.93017,0.45377 1.72423,1.05499 2.38218,1.80365 0.65792,0.72602 1.16839,1.56546 1.53141,2.51831 0.38566,0.9302 0.57851,1.88308 0.57853,2.85862 -2e-5,0.81676 -0.11346,1.59948 -0.34031,2.34815 -0.2269,0.7487 -0.54452,1.44067 -0.95288,2.0759 -0.40839,0.63526 -0.90751,1.19111 -1.49737,1.66753 -0.58989,0.45376 -1.23648,0.79407 -1.93978,1.02094 l 5.75127,9.18842 -4.32196,0 -5.30886,-8.40571 -5.58111,0 0,8.40571 -3.8115,0 m 3.8115,-11.77479 6.67011,0 c 0.54448,10e-6 1.03226,-0.11343 1.46334,-0.34032 0.45373,-0.24954 0.83942,-0.57851 1.15706,-0.9869 0.31761,-0.43105 0.56717,-0.91883 0.74868,-1.46334 0.18149,-0.54448 0.27224,-1.12301 0.27225,-1.73559 -1e-5,-0.61254 -0.11345,-1.19107 -0.34031,-1.73559 -0.2042,-0.54448 -0.48779,-1.02092 -0.85078,-1.42931 -0.34033,-0.40835 -0.7487,-0.72598 -1.22512,-0.95287 -0.45376,-0.24954 -0.9302,-0.37433 -1.42931,-0.37435 l -6.46592,0 0,9.01827"
           style="font-size:34.03118134px;font-weight:600;line-height:125%;font-family:Raleway;-inkscape-font-specification:Raleway Bold"
           id="path3116"
           inkscape:connector-curvature="0" />
        <path
           d="m 341.58719,592.32176 c -1.38394,0 -2.6431,-0.23822 -3.77746,-0.71466 -1.13438,-0.49912 -2.10994,-1.1684 -2.92668,-2.00784 -0.79407,-0.83943 -1.41797,-1.81499 -1.87172,-2.92668 -0.43106,-1.11168 -0.64659,-2.29142 -0.64659,-3.53924 0,-1.2478 0.21553,-2.42755 0.64659,-3.53924 0.45375,-1.13436 1.07765,-2.12127 1.87172,-2.96072 0.81674,-0.8621 1.7923,-1.53138 2.92668,-2.00784 1.13436,-0.4991 2.40486,-0.74867 3.81149,-0.74868 1.38392,1e-5 2.63173,0.24958 3.74343,0.74868 1.13436,0.49914 2.09857,1.16842 2.89265,2.00784 0.79404,0.81677 1.39526,1.78098 1.80365,2.89265 0.43105,1.08901 0.64658,2.23473 0.6466,3.43715 -2e-5,0.27226 -0.0114,0.53317 -0.034,0.78272 -0.0227,0.22688 -0.0454,0.41973 -0.0681,0.57853 l -14.25906,0 c 0.0681,0.79407 0.24955,1.50872 0.5445,2.14396 0.31761,0.63526 0.71464,1.1911 1.19109,1.66753 0.49911,0.45375 1.05496,0.80541 1.66753,1.05497 0.63524,0.24956 1.29317,0.37434 1.9738,0.37434 0.49912,0 0.9869,-0.0567 1.46335,-0.17015 0.49911,-0.13613 0.95286,-0.31763 1.36124,-0.5445 0.40836,-0.24956 0.77136,-0.5445 1.089,-0.88481 0.31761,-0.34031 0.56717,-0.71465 0.74869,-1.12303 l 3.19893,0.91884 c -0.61258,1.33856 -1.63352,2.4389 -3.06281,3.30102 -1.40664,0.83944 -3.05147,1.25916 -4.93452,1.25916 m 5.41096,-10.5837 c -0.0681,-0.74868 -0.26092,-1.44064 -0.57853,-2.0759 -0.29495,-0.63524 -0.68064,-1.16839 -1.15706,-1.59947 -0.47645,-0.45373 -1.0323,-0.80539 -1.66753,-1.05496 -0.63526,-0.24955 -1.30454,-0.37433 -2.00784,-0.37435 -0.70332,2e-5 -1.3726,0.1248 -2.00784,0.37435 -0.61257,0.24957 -1.15707,0.60123 -1.6335,1.05496 -0.47644,0.43108 -0.86213,0.96423 -1.15706,1.59947 -0.29494,0.63526 -0.47644,1.32722 -0.5445,2.0759 l 10.75386,0"
           style="font-size:34.03118134px;font-weight:600;line-height:125%;font-family:Raleway;-inkscape-font-specification:Raleway Bold"
           id="path3118"
           inkscape:connector-curvature="0" />
        <path
           d="m 354.84925,591.98145 0,-12.82976 -2.38218,0 0,-2.89265 2.38218,0 0,-2.34815 c 0,-2.20066 0.51046,-3.93625 1.5314,-5.20677 1.02093,-1.27048 2.40487,-1.90572 4.15181,-1.90575 0.72599,3e-5 1.44064,0.10212 2.14396,0.30628 0.7033,0.18153 1.36124,0.44243 1.97381,0.78272 l -0.81675,2.79056 c -0.31763,-0.20417 -0.71466,-0.37433 -1.19109,-0.51047 -0.45376,-0.1361 -0.89616,-0.20417 -1.32722,-0.20419 -0.88482,2e-5 -1.56544,0.32899 -2.04187,0.98691 -0.45375,0.65795 -0.68063,1.61082 -0.68062,2.85861 l 0,2.45025 4.52615,0 0,2.89265 -4.52615,0 0,12.82976 -3.74343,0"
           style="font-size:34.03118134px;font-weight:600;line-height:125%;font-family:Raleway;-inkscape-font-specification:Raleway Bold"
           id="path3120"
           inkscape:connector-curvature="0" />
        <path
           d="m 376.22721,577.4161 c -1.45201,0.0454 -2.73385,0.3857 -3.84552,1.02094 -1.11169,0.61257 -1.9171,1.49738 -2.41622,2.65443 l 0,10.88998 -3.74343,0 0,-17.79831 3.47118,0 0,3.98165 c 0.63525,-1.22511 1.44065,-2.22336 2.41622,-2.99475 0.99824,-0.77135 2.0532,-1.15704 3.1649,-1.15706 0.22686,2e-5 0.40836,2e-5 0.5445,0 0.1588,2e-5 0.29492,0.0114 0.40837,0.034 l 0,3.36909"
           style="font-size:34.03118134px;font-weight:600;line-height:125%;font-family:Raleway;-inkscape-font-specification:Raleway Bold"
           id="path3122"
           inkscape:connector-curvature="0" />
        <path
           d="m 387.05072,592.32176 c -1.38394,0 -2.6431,-0.23822 -3.77746,-0.71466 -1.13438,-0.49912 -2.10994,-1.1684 -2.92668,-2.00784 -0.79407,-0.83943 -1.41797,-1.81499 -1.87172,-2.92668 -0.43106,-1.11168 -0.64659,-2.29142 -0.64659,-3.53924 0,-1.2478 0.21553,-2.42755 0.64659,-3.53924 0.45375,-1.13436 1.07765,-2.12127 1.87172,-2.96072 0.81674,-0.8621 1.7923,-1.53138 2.92668,-2.00784 1.13436,-0.4991 2.40486,-0.74867 3.81149,-0.74868 1.38393,1e-5 2.63173,0.24958 3.74343,0.74868 1.13436,0.49914 2.09858,1.16842 2.89265,2.00784 0.79405,0.81677 1.39526,1.78098 1.80366,2.89265 0.43104,1.08901 0.64657,2.23473 0.64659,3.43715 -2e-5,0.27226 -0.0114,0.53317 -0.034,0.78272 -0.0227,0.22688 -0.0454,0.41973 -0.0681,0.57853 l -14.25906,0 c 0.0681,0.79407 0.24956,1.50872 0.5445,2.14396 0.31762,0.63526 0.71465,1.1911 1.19109,1.66753 0.49912,0.45375 1.05496,0.80541 1.66753,1.05497 0.63524,0.24956 1.29317,0.37434 1.97381,0.37434 0.49911,0 0.98689,-0.0567 1.46334,-0.17015 0.49911,-0.13613 0.95286,-0.31763 1.36124,-0.5445 0.40836,-0.24956 0.77136,-0.5445 1.089,-0.88481 0.31761,-0.34031 0.56717,-0.71465 0.74869,-1.12303 l 3.19893,0.91884 c -0.61258,1.33856 -1.63351,2.4389 -3.06281,3.30102 -1.40663,0.83944 -3.05147,1.25916 -4.93452,1.25916 m 5.41096,-10.5837 c -0.0681,-0.74868 -0.26092,-1.44064 -0.57853,-2.0759 -0.29495,-0.63524 -0.68064,-1.16839 -1.15706,-1.59947 -0.47645,-0.45373 -1.03229,-0.80539 -1.66753,-1.05496 -0.63526,-0.24955 -1.30454,-0.37433 -2.00784,-0.37435 -0.70332,2e-5 -1.3726,0.1248 -2.00784,0.37435 -0.61257,0.24957 -1.15707,0.60123 -1.6335,1.05496 -0.47644,0.43108 -0.86212,0.96423 -1.15706,1.59947 -0.29494,0.63526 -0.47644,1.32722 -0.54449,2.0759 l 10.75385,0"
           style="font-size:34.03118134px;font-weight:600;line-height:125%;font-family:Raleway;-inkscape-font-specification:Raleway Bold"
           id="path3124"
           inkscape:connector-curvature="0" />
        <path
           d="m 405.85986,592.32176 c -0.726,0 -1.46334,-0.0567 -2.21202,-0.17016 -0.72601,-0.11344 -1.452,-0.27225 -2.178,-0.47644 -0.70331,-0.22687 -1.38394,-0.48777 -2.04187,-0.78271 -0.63525,-0.31763 -1.20244,-0.66928 -1.70156,-1.05497 l 1.56544,-2.51831 c 2.17799,1.52007 4.34464,2.2801 6.49995,2.28009 1.13436,1e-5 2.03052,-0.21553 2.68847,-0.64659 0.65792,-0.43106 0.98689,-1.04362 0.9869,-1.83768 -1e-5,-0.74868 -0.37436,-1.29318 -1.12303,-1.6335 -0.72601,-0.36299 -1.89441,-0.73734 -3.50521,-1.12303 -1.11169,-0.27224 -2.06457,-0.54449 -2.85862,-0.81675 -0.79407,-0.29493 -1.44066,-0.61255 -1.93978,-0.95287 -0.49912,-0.36299 -0.86212,-0.78271 -1.089,-1.25915 -0.22687,-0.49912 -0.34031,-1.08899 -0.34031,-1.76963 0,-0.90748 0.1815,-1.71288 0.5445,-2.41621 0.363,-0.7033 0.85078,-1.29317 1.46334,-1.76962 0.63525,-0.49911 1.37259,-0.87345 2.21203,-1.12303 0.86212,-0.24954 1.78096,-0.37433 2.75652,-0.37434 1.29318,1e-5 2.54099,0.2042 3.74343,0.61256 1.20243,0.40839 2.28008,0.96423 3.23297,1.66753 l -1.59947,2.28009 c -1.70157,-1.27049 -3.51656,-1.90574 -5.44499,-1.90575 -0.95288,10e-6 -1.75828,0.2042 -2.41621,0.61256 -0.65794,0.3857 -0.98691,1.00961 -0.98691,1.87172 0,0.36301 0.0681,0.66929 0.20419,0.91884 0.13612,0.24957 0.35165,0.4651 0.64659,0.64659 0.31762,0.18151 0.726,0.35167 1.22513,0.51047 0.49911,0.13613 1.11167,0.29494 1.83768,0.47643 1.22511,0.29495 2.28008,0.58989 3.1649,0.88481 0.8848,0.29495 1.6108,0.64661 2.178,1.05497 0.58985,0.3857 1.02092,0.85079 1.29318,1.39528 0.27223,0.52182 0.40836,1.15707 0.40837,1.90575 -1e-5,0.83944 -0.17017,1.59946 -0.51046,2.28008 -0.34033,0.68063 -0.82811,1.25916 -1.46334,1.7356 -0.61258,0.47643 -1.37261,0.85077 -2.28009,1.12302 -0.88482,0.24957 -1.87173,0.37435 -2.96072,0.37435"
           style="font-size:34.03118134px;font-weight:600;line-height:125%;font-family:Raleway;-inkscape-font-specification:Raleway Bold"
           id="path3126"
           inkscape:connector-curvature="0" />
        <path
           d="m 432.19999,591.98145 -3.74343,0 0,-9.97114 c -1e-5,-1.63349 -0.29495,-2.83592 -0.88481,-3.60731 -0.58988,-0.79404 -1.42932,-1.19107 -2.5183,-1.19109 -0.49914,2e-5 -1.00961,0.10211 -1.53141,0.30628 -0.52182,0.2042 -1.02094,0.49914 -1.49737,0.88481 -0.45376,0.36302 -0.87347,0.80542 -1.25915,1.32722 -0.36301,0.49914 -0.63526,1.05498 -0.81675,1.66753 l 0,10.5837 -3.74343,0 0,-24.84277 3.74343,0 0,10.61773 c 0.7033,-1.22511 1.63349,-2.17798 2.79056,-2.85862 1.17973,-0.6806 2.46157,-1.02092 3.84552,-1.02093 1.08898,1e-5 1.99648,0.2042 2.72249,0.61256 0.72599,0.3857 1.30452,0.90751 1.73559,1.56543 0.43105,0.65795 0.72599,1.42933 0.88482,2.31412 0.18148,0.86214 0.27223,1.78098 0.27224,2.75653 l 0,10.85595"
           style="font-size:34.03118134px;font-weight:600;line-height:125%;font-family:Raleway;-inkscape-font-specification:Raleway Bold"
           id="path3128"
           inkscape:connector-curvature="0" />
      </g>
    </g>
  </g>
</svg>
